/* XPM */
static char *_275_5050183daaefb0c4b368a6a52d12098326ce7723efa2c321d91f5c60e25ecde9_0[] = {
/* columns rows colors chars-per-pixel */
"48 48 89 1 ",
"  c #2C2C1E9F0000",
". c #2E67213E0000",
"X c #334724830000",
"o c #373728280000",
"O c #3B032A140000",
"+ c #41972E2E0000",
"@ c #44E231800000",
"# c #4C03357E0000",
"$ c #52523B100000",
"% c #59593E3E0000",
"& c #5D1D43030000",
"* c #62E345250000",
"= c #68E946C70000",
"- c #61B749490000",
"; c #6C6C4A4A0000",
": c #73F44D4D0000",
"> c #6D6D50500000",
", c #749F552A002B",
"< c #7B7B52520000",
"1 c #777759590000",
"2 c #7BFC5B5B0000",
"3 c #808057570000",
"4 c #85055B1B0000",
"5 c #8A0A5E5E0000",
"6 c #92925E5E0000",
"7 c #8630650F0000",
"8 c #8CBF62950000",
"9 c #8CF36A6A0067",
"0 c #919162E30000",
"q c #93936C6C0000",
"w c #9AF06D6D0101",
"e c #9B9B73F40101",
"r c #9E9E79790101",
"t c #A3A36BC100AB",
"y c #A8A86E6E0000",
"u c #A52573730101",
"i c #AB2B73F40101",
"p c #A3A37B7B0101",
"a c #A9A97D7D0101",
"s c #B35D7AD00101",
"d c #BB3B7C7C0081",
"f c #C5C57E7E0000",
"g c #A6A680800101",
"h c #B1B181010101",
"j c #BABA83830101",
"k c #B6B68E8E0101",
"l c #BC118BE10101",
"z c #BCBC91910101",
"x c #C54586860101",
"c c #C6C68F8F0101",
"v c #CCCC8E8E0101",
"b c #D4948D4D00C1",
"n c #C51A913B0101",
"m c #CDCD97170101",
"M c #C54599990101",
"N c #D65693130101",
"B c #DDDD91910101",
"V c #D52A9B9B0101",
"C c #DDDD9A9A0101",
"Z c #E1E18F0F0000",
"A c #E4E4943E00AB",
"S c #E8E893930000",
"D c #E4E49AF00101",
"F c #EB1D9C9C0101",
"G c #F0F097970000",
"H c #FFFF96340000",
"J c #F3F39C9C0081",
"K c #FFFF9C4A0000",
"L c #D1D1A3A30202",
"P c #DB85A54F0101",
"I c #DC5CA9A90101",
"U c #E5E5A0A00101",
"Y c #EB40A5A50101",
"T c #E524ACEC0101",
"R c #F6F6A1A10101",
"E c #FFDBA3F8006A",
"W c #F433AD6D0101",
"Q c #FFF7AC640101",
"! c #EE43B2B20101",
"~ c #EC6CB8B80182",
"^ c #F2F2B2B20101",
"/ c #FFFBB41D0101",
"( c #F49EBB100157",
") c #FFDEBC230101",
"_ c #F777C3430202",
"` c #FFDEC4730137",
"' c #FFFCCC4101FE",
"] c #FFFFD35B0202",
"[ c None",
/* pixels */
"[[[[[[[[[[[[[[[[[[[]]]]]]]]]][[[[[[[[[[[[[[[[[[[",
"[[[[[[[[[[[[[[[[]]]]]]]]]]]]]]]][[[[[[[[[[[[[[[[",
"[[[[[[[[[[[[[]]]]]]]]]]]]]]]]]]]]]][[[[[[[[[[[[[",
"[[[[[[[[[[[[]']']]]]]]]]]]]]]]]]]]]][[[[[[[[[[[[",
"[[[[[[[[[[']']']]']']]']']]]]]]]]]]]]][[[[[[[[[[",
"[[[[[[[[[''''''']']''']']]']]]]]']]]']][[[[[[[[[",
"[[[[[[[[''''''''''''']']'']']]]]']]]]]'][[[[[[[[",
"[[[[[[[''''''''''''''''''']]]]]]]''''']]][[[[[[[",
"[[[[[[''`'`'''`'`''''']''''''''''''''''']'[[[[[[",
"[[[[[``'`''``''`''`'~kM~'__''''''''''''''''[[[[[",
"[[[[`````'``'``'`'`'LOok'9-e_''`''`'''''''''[[[[",
"[[[[``````````````''zOoM_-.,`'`''`'''`'``'''[[[[",
"[[[``)`````````)`'`'gX@I~$.9``'`'`''`''''`'`'[[[",
"[[`````))```)`(719pk1.#II@.r'````````````'`''`[[",
"[[)))`)```````T# XXXoXo&-oX7T('``````````'```'[[",
"[[)`))`))))))`T,$+XXXXXX.XXo#1z(``````````````[[",
"[))))))))))))`)(!l@XXX@$+OXXXXO7^````))````````[",
"[))))))))))))))))T#XXXq!Pcq#XXXX9()`)````))```)[",
"[))))))))))))))))VOXXXa`)`)m@XXX@P)```)`)``))``[",
")//))//))))/))/))nOXXXl))))(>.XXon`))))))))``))`",
"/)//)/))/)/))/)))hXXXOV)/))^*XXXOV))))))`))))`))",
"//)//////)///)/))eXXX@V/)))hOXXX*W))))))))))))))",
"/////////)////)/)8.XXo&,7w2@XXX#c))//)))))))))))",
"Q////////////////,XXXXX .X.XXX#c))/))/)//))/)/))",
"///Q//Q///Q/Q///W*XXX@*#@O.XXXO7Y///)/)))//))/)/",
"QQ/QQ/Q//Q////Q/Y$XXX4WYCvu&XXXX,W)//////)///)/)",
"Q/Q/Q//QQ//QQ///C@XXXw/////D*XXXoj/////////)////",
"QQQQQQQQ/QQQQQQ/bOXXXs//Q///uXXXX8//////////////",
"QQQQQQQQQQQQQ/QQdXXXOx/Q/QQ/wXXX.0////Q///////Q/",
"[QQQQQQQQQQQQFDY4XXX+N/QQQ/F&XXXXi/QQQ///Q/Q///[",
"[EQEQQEQEQQQQ5@#OXXoO8sxbNs*XXXX+N/QQQ/QQ/QQ/Q/[",
"[QEQEEEQQQEQR=..XXXXXXXOOOoXXXXX<QQQ/QQQQQQ/QQQ[",
"[[EEEQEQEEQEEi4:*#oXXXXXXXXXXXX;DQQQQQQQQQQQQQ[[",
"[[EEEEEEQEEEEQERRB$.*t*XX##@#=uFQQQEQQQQEQQQQQ[[",
"[[EEEEEEEEEEEEEQEA#X6Q5X#bSAFRQQEQEQQEQEQQEQQQ[[",
"[[[EEEKEEEEEEEEEEb+XyE<X%JQEEEEEEEQEEQEQEQQEE[[[",
"[[[[EEEEEEKEEEEEEfXXdK= =JEEEEEEEQEEQEEEEQEQ[[[[",
"[[[[KKKEKKEEKEEKEZt6ZJ:+4EEEEEEEEEEEEEEEEEEE[[[[",
"[[[[[KEKKEEKKEKKKEEEEKGZSEEEKEEEEEEEEEEEEEE[[[[[",
"[[[[[[KKKKKKKKEKEKKKKEEEKKKEEKEKEKEKEEEEEE[[[[[[",
"[[[[[[[KKKKKKKKKKKKKKKKKKKKKEEKKKEKEEKEKE[[[[[[[",
"[[[[[[[[KKHKKKKKKKKKKKKKKEKKKKKKEKKEKEKE[[[[[[[[",
"[[[[[[[[[KHKHKHKKKKKKKKKKKKKKKKKKKKKKKK[[[[[[[[[",
"[[[[[[[[[[KHKHKHKHHKKHKHKKHKKKKKKKKKKK[[[[[[[[[[",
"[[[[[[[[[[[[HHHHHHHHKHHHHHKKKKHKKKHK[[[[[[[[[[[[",
"[[[[[[[[[[[[[HHHHHHHHHHHKHHHHKHKHKK[[[[[[[[[[[[[",
"[[[[[[[[[[[[[[[[HHHHHHHHHHHHHHHH[[[[[[[[[[[[[[[[",
"[[[[[[[[[[[[[[[[[[[HHHHHHHHHH[[[[[[[[[[[[[[[[[[["
};
